<svg xmlns="http://www.w3.org/2000/svg" xmlns:xlink="http://www.w3.org/1999/xlink" id="Layer_1" x="0px" y="0px" viewBox="0 0 54 54" style="enable-background:new 0 0 54 54;" xml:space="preserve">
<style type="text/css">
	.st0{clip-path:url(#SVGID_2_);}
	.st1{clip-path:url(#SVGID_2_);fill:#6D6F72;}
	.st2{clip-path:url(#SVGID_2_);fill:#D8D8D8;}
	.st3{clip-path:url(#SVGID_2_);fill:#3396CF;}
	.st4{opacity:0.2;clip-path:url(#SVGID_2_);}
	.st5{clip-path:url(#SVGID_2_);fill:#FFB123;}
	.st6{fill:#3396CF;}
	.st7{opacity:0.2;}
	.st8{fill:#DBDBDB;}
	.st9{fill:#6D6F72;}
	.st10{fill:#F0AB12;}
	.st11{clip-path:url(#SVGID_2_);fill:#DBDBDB;}
	.st12{clip-path:url(#SVGID_2_);fill:#F0AB12;}
	.st13{opacity:0.2;clip-path:url(#SVGID_2_);enable-background:new    ;}
	.st14{clip-path:url(#SVGID_4_);}
	.st15{clip-path:url(#SVGID_2_);fill:#505050;}
	.st16{clip-path:url(#SVGID_2_);fill:#2C92BF;}
	.st17{clip-path:url(#SVGID_2_);fill:#FFFFFF;}
	.st18{clip-path:url(#SVGID_2_);fill:#142636;}
	.st19{clip-path:url(#SVGID_2_);fill:#C41F61;}
	.st20{clip-path:url(#SVGID_2_);fill:#F4F4F4;}
	.st21{clip-path:url(#SVGID_2_);fill:#3DAD87;}
	.st22{clip-path:url(#SVGID_6_);}
	.st23{clip-path:url(#SVGID_8_);fill:none;stroke:#142636;stroke-width:3.126;stroke-linejoin:round;}
	.st24{clip-path:url(#SVGID_10_);fill:#13805B;}
	.st25{clip-path:url(#SVGID_10_);fill:#3DAD87;}
	.st26{clip-path:url(#SVGID_10_);fill:#142636;}
	.st27{clip-path:url(#SVGID_10_);fill:#030504;}
	.st28{clip-path:url(#SVGID_10_);fill:#FFFFFF;}
	.st29{clip-path:url(#SVGID_10_);fill:#DBDBDB;}
	.st30{clip-path:url(#SVGID_10_);fill:#F5F5F5;}
	.st31{clip-path:url(#SVGID_10_);}
	.st32{clip-path:url(#SVGID_10_);fill:#6D6F72;}
	.st33{clip-path:url(#SVGID_10_);fill:#3396CF;}
	.st34{clip-path:url(#SVGID_10_);fill:none;stroke:#DBDBDB;}
	.st35{clip-path:url(#SVGID_10_);fill:#C41F61;}
	.st36{clip-path:url(#SVGID_10_);fill:#CFCFCF;}
	.st37{clip-path:url(#SVGID_10_);fill:none;stroke:#030504;stroke-width:1.5;}
	.st38{clip-path:url(#SVGID_10_);fill:#00A1ED;}
	.st39{clip-path:url(#SVGID_10_);fill:#D3D3D2;}
	.st40{opacity:0.2;clip-path:url(#SVGID_10_);fill:#080909;}
	.st41{clip-path:url(#SVGID_10_);fill:#F0AB12;}
	.st42{clip-path:url(#SVGID_10_);fill:#5A5C5F;}
	.st43{clip-path:url(#SVGID_10_);fill:#C5C5C5;}
	.st44{clip-path:url(#SVGID_10_);fill:none;stroke:#030504;stroke-width:1.215;}
	.st45{clip-path:url(#SVGID_10_);fill:#393939;}
	.st46{fill:#142636;}
	.st47{clip-path:url(#SVGID_12_);enable-background:new    ;}
	.st48{clip-path:url(#SVGID_14_);fill:#848080;}
	.st49{clip-path:url(#SVGID_14_);fill:#E2E2E2;}
	.st50{clip-path:url(#SVGID_14_);fill:#3396CF;}
	.st51{clip-path:url(#SVGID_14_);fill:#142636;}
	.st52{clip-path:url(#SVGID_16_);enable-background:new    ;}
	.st53{clip-path:url(#SVGID_18_);fill:#F0AB12;}
	.st54{clip-path:url(#SVGID_18_);fill:#FFFFFF;}
	.st55{clip-path:url(#SVGID_18_);fill:#142636;}
	.st56{clip-path:url(#SVGID_20_);enable-background:new    ;}
	.st57{clip-path:url(#SVGID_22_);fill:#3396CF;}
	.st58{clip-path:url(#SVGID_22_);fill:#E2E2E2;}
	.st59{clip-path:url(#SVGID_22_);fill:#F0AB12;}
	.st60{clip-path:url(#SVGID_22_);fill:#FFF5F5;}
	.st61{clip-path:url(#SVGID_22_);fill:#142636;}
	.st62{clip-path:url(#SVGID_24_);enable-background:new    ;}
	.st63{clip-path:url(#SVGID_26_);fill:#3396CF;}
	.st64{clip-path:url(#SVGID_26_);fill:#E2E2E2;}
	.st65{clip-path:url(#SVGID_26_);fill:#F0AB12;}
	.st66{clip-path:url(#SVGID_26_);fill:#142636;}
	.st67{clip-path:url(#SVGID_28_);}
	.st68{fill:#3794CF;}
	.st69{fill:#F0AD11;}
	.st70{fill:#FFCD2C;}
	.st71{fill:#F6F6F6;}
	.st72{fill:#3A92CF;}
	.st73{fill:#237BB7;}
	.st74{fill:#999999;}
	.st75{fill:#2779B7;}
	.st76{fill:#142536;}
	.st77{clip-path:url(#SVGID_28_);fill:#6D6F72;}
	.st78{clip-path:url(#SVGID_30_);enable-background:new    ;}
	.st79{clip-path:url(#SVGID_32_);fill:#142636;}
	.st80{clip-path:url(#SVGID_32_);fill:#E2E2E2;}
	.st81{clip-path:url(#SVGID_32_);fill:#3396CF;}
	.st82{opacity:0.2;clip-path:url(#SVGID_32_);fill:#FFFFFF;}
	.st83{opacity:0.102;clip-path:url(#SVGID_32_);}
	.st84{clip-path:url(#SVGID_32_);fill:#F0AB12;}
	.st85{clip-path:url(#SVGID_34_);fill:#E2E2E2;}
	.st86{clip-path:url(#SVGID_34_);fill:#42A5F5;}
	.st87{clip-path:url(#SVGID_34_);fill:#3396CF;}
	.st88{clip-path:url(#SVGID_34_);fill:#142636;}
	.st89{clip-path:url(#SVGID_34_);fill:#F0AB12;}
	.st90{clip-path:url(#SVGID_34_);fill:none;stroke:#142636;stroke-width:3;}
	.st91{clip-path:url(#SVGID_34_);fill:#FFFFFF;}
	.st92{clip-path:url(#SVGID_34_);fill:none;stroke:#FFFFFF;stroke-width:3;}
	.st93{clip-path:url(#SVGID_34_);fill:#3DAD87;}
	.st94{clip-path:url(#SVGID_34_);fill:none;stroke:#FFFFFF;stroke-width:2;stroke-linecap:round;stroke-linejoin:round;}
	.st95{clip-path:url(#SVGID_34_);fill:#C41F61;}
	.st96{clip-path:url(#SVGID_34_);fill:none;stroke:#142636;stroke-width:2.5;}
	.st97{clip-path:url(#SVGID_34_);fill:#B1DBFC;}
	.st98{clip-path:url(#SVGID_34_);fill:#FFD301;}
	.st99{clip-path:url(#SVGID_34_);fill:none;stroke:#142636;stroke-width:0.2;}
	.st100{clip-path:url(#SVGID_34_);fill:#15324B;}
	.st101{clip-path:url(#SVGID_34_);fill:#F6F6F6;}
	.st102{clip-path:url(#SVGID_34_);fill:#5C5C5C;}
	.st103{clip-path:url(#SVGID_34_);fill:#F0AD11;}
	.st104{clip-path:url(#SVGID_34_);fill:#FFD4BE;}
	.st105{clip-path:url(#SVGID_34_);fill:#DBDBDB;}
	.st106{clip-path:url(#SVGID_34_);fill:#6D6F72;}
	.st107{clip-path:url(#SVGID_34_);fill:#2877A4;}
	.st108{clip-path:url(#SVGID_34_);fill-rule:evenodd;clip-rule:evenodd;fill:#EDEDED;}
	.st109{clip-path:url(#SVGID_34_);fill-rule:evenodd;clip-rule:evenodd;fill:#E2E2E2;}
	.st110{clip-path:url(#SVGID_34_);fill:none;stroke:#E2E2E2;}
	.st111{clip-path:url(#SVGID_34_);fill:#F0F0F0;}
	.st112{clip-path:url(#SVGID_34_);fill:none;stroke:#0D1C29;stroke-width:4;stroke-miterlimit:10;}
	.st113{clip-path:url(#SVGID_34_);fill:#0B151E;}
	.st114{clip-path:url(#SVGID_34_);fill:#E07814;}
	.st115{clip-path:url(#SVGID_34_);fill:#F09909;}
	.st116{clip-path:url(#SVGID_34_);fill:none;stroke:#142636;stroke-width:4;stroke-linejoin:round;}
	.st117{clip-path:url(#SVGID_34_);fill:#0F85C6;}
	.st118{clip-path:url(#SVGID_34_);fill:#434344;}
	.st119{clip-path:url(#SVGID_34_);fill:#0D6F9F;}
	.st120{clip-path:url(#SVGID_34_);fill:#5B5C5F;}
	.st121{clip-path:url(#SVGID_34_);fill:#0D1C29;}
	.st122{clip-path:url(#SVGID_34_);fill:#D4D4D2;}
	.st123{clip-path:url(#SVGID_34_);fill:none;stroke:#FFFFFF;stroke-width:4;stroke-miterlimit:10;}
	.st124{clip-path:url(#SVGID_34_);fill:#F1F1F2;}
	.st125{clip-path:url(#SVGID_34_);fill:none;stroke:#FFFFFF;stroke-width:3;stroke-linecap:round;}
	.st126{clip-path:url(#SVGID_34_);fill:#E7ECF1;}
	.st127{clip-path:url(#SVGID_34_);fill:#DAE4EA;}
	.st128{clip-path:url(#SVGID_34_);fill:#F4F8F8;}
	.st129{clip-path:url(#SVGID_34_);fill:#78B9EB;}
	.st130{clip-path:url(#SVGID_34_);fill:#808285;}
	.st131{clip-path:url(#SVGID_34_);}
	.st132{clip-path:url(#SVGID_34_);fill:none;stroke:#DBDBDB;}
	.st133{opacity:0.1;fill:#808285;}
	.st134{fill:#D8D8D8;}
	.st135{fill:#FFB123;}
	.st136{fill:#CFCFCF;}
	.st137{fill:none;stroke:#030504;stroke-width:1.5;}
	.st138{fill:#00A1ED;}
	.st139{fill:#030504;}
	.st140{fill:#D3D3D2;}
	.st141{opacity:0.2;fill:#080909;}
	.st142{fill:#5A5C5F;}
	.st143{fill:#C5C5C5;}
	.st144{fill:none;stroke:#030504;stroke-width:1.215;}
	.st145{fill:#393939;}
	.st146{fill:#FFD4BE;}
	.st147{fill:#E7ECF1;}
	.st148{fill:#DAE4EA;}
	.st149{fill:#F4F8F8;}
	.st150{fill:#FFFFFF;}
	.st151{fill:#505050;}
	.st152{fill:#2C92BF;}
	.st153{fill:#C41F61;}
	.st154{fill:#3DAD87;}
	.st155{fill:#E2E2E2;}
	.st156{clip-path:url(#SVGID_36_);enable-background:new    ;}
	.st157{clip-path:url(#SVGID_38_);fill:#3396CF;}
	.st158{clip-path:url(#SVGID_38_);fill:#E2E2E2;}
	.st159{clip-path:url(#SVGID_38_);fill:#F0AB12;}
	.st160{clip-path:url(#SVGID_38_);fill:#142636;}
	.st161{clip-path:url(#SVGID_40_);enable-background:new    ;}
	.st162{clip-path:url(#SVGID_42_);fill:#DBDBDB;}
	.st163{clip-path:url(#SVGID_42_);fill:#6D6F72;}
	.st164{clip-path:url(#SVGID_42_);fill:#3396CF;}
	.st165{clip-path:url(#SVGID_42_);fill:#FFB123;}
	.st166{clip-path:url(#SVGID_42_);fill:#2877A4;}
	.st167{clip-path:url(#SVGID_42_);}
</style>
<g>
<path class="st10" d="M35.92,19.98c0,3.81-3.09,6.9-6.9,6.9c-0.35,0-0.7-0.03-1.04-0.08c0,0,0,0,0,0c0.09-0.02,0.17-0.05,0.25-0.09   c0.7-0.3,1.18-1,1.18-1.81c0-0.55-0.22-1.04-0.58-1.4c-0.36-0.36-0.85-0.58-1.4-0.58h-4.66c-0.42-0.89-0.66-1.89-0.66-2.95   c0-0.07,0-0.13,0-0.2c0,0,0-0.01,0-0.01c0-0.1,0.01-0.2,0.02-0.3c0.07-1.05,0.4-2.1,0.94-3.01c0.15-0.26,0.32-0.5,0.51-0.74   c0.08-0.1,0.16-0.19,0.24-0.29c1.26-1.44,3.12-2.35,5.19-2.35C32.83,13.07,35.92,16.16,35.92,19.98z"></path>
<path class="st146" d="M41.59,28.65h-5.65l-6.23,2.58c-1.09,0.45-1.6,1.7-1.14,2.79l0.02,0.05c0.46,1.1,1.7,1.62,2.8,1.2   c1.77-0.68,4.09-1.57,4.09-1.57l-5.97,2.3c-1.26,0.48-2.63,0.58-3.95,0.28l-6.12-1.4c-1.12-0.26-2.23,0.46-2.47,1.58   c-0.22,1.08,0.44,2.14,1.5,2.41l7.3,1.86c1.38,0.35,2.83,0.26,4.15-0.26l9.42-3.7h2.25V28.65z"></path>
<path class="st8" d="M41.59,28.65h-5.65l-6.23,2.58c-1.09,0.45-1.6,1.7-1.14,2.79l0.02,0.05c0.46,1.1,1.7,1.62,2.8,1.2   c1.77-0.68,4.09-1.57,4.09-1.57l-5.97,2.3c-1.26,0.48-2.63,0.58-3.95,0.28l-6.12-1.4c-1.12-0.26-2.23,0.46-2.47,1.58   c-0.22,1.08,0.44,2.14,1.5,2.41l7.3,1.86c1.38,0.35,2.83,0.26,4.15-0.26l9.42-3.7h2.25V28.65z"></path>
<rect x="41.59" y="27.21" class="st9" width="4.63" height="10.74"></rect>
<rect x="7.78" y="16.96" class="st6" width="4.63" height="10.74"></rect>
<path class="st8" d="M29.41,24.9c0,0.81-0.48,1.51-1.18,1.81c-0.08,0.04-0.16,0.07-0.25,0.09c-0.17,0.05-0.36,0.08-0.55,0.08H12.41   v-8.86h1c0.46,0,0.91-0.11,1.31-0.32l5.1-3.33c0.98-0.5,2.15-0.4,3.03,0.25l1.01,0.75c-1.05,1.17-1.7,2.71-1.74,4.39h-0.47   c-0.44,0-0.83,0.18-1.11,0.46c-0.29,0.29-0.46,0.68-0.46,1.11c0,0.87,0.7,1.57,1.58,1.57h5.78c0.55,0,1.04,0.22,1.4,0.58   C29.18,23.86,29.41,24.36,29.41,24.9z"></path>
<path class="st146" d="M22.11,19.77c0-0.1,0.01-0.2,0.02-0.3C22.12,19.56,22.11,19.66,22.11,19.77z"></path>
<path d="M45.44,37.17h-3.06v-9.18h3.06V37.17z M39.35,35.98c-0.1,0-0.19,0.02-0.29,0.05l-9.42,3.7c-1.18,0.46-2.45,0.54-3.67,0.23   l-7.3-1.86c-0.66-0.17-1.07-0.82-0.93-1.49c0.07-0.34,0.27-0.63,0.56-0.81c0.21-0.13,0.44-0.2,0.68-0.2c0.1,0,0.19,0.01,0.29,0.03   l6.12,1.4c1.47,0.34,3,0.23,4.41-0.31l1.78-0.68c0.04-0.01,0.07-0.03,0.11-0.04c1.57-0.61,3.57-1.38,4-1.54l0.08-0.03   c0.4-0.15,0.6-0.61,0.45-1.01c-0.15-0.4-0.61-0.6-1.01-0.45c0,0-0.03,0.01-0.09,0.04l-4.07,1.57c-0.69,0.22-1.44-0.12-1.73-0.8   l-0.02-0.05c-0.14-0.33-0.14-0.7-0.01-1.03s0.4-0.59,0.73-0.73l6.09-2.52h4.71v6.55H39.35z M46.22,26.43h-4.63   c-0.43,0-0.78,0.35-0.78,0.78v0.66h-4.87c-0.1,0-0.2,0.02-0.3,0.06l-6.23,2.58c-0.72,0.3-1.28,0.86-1.58,1.58   c-0.3,0.72-0.29,1.52,0.01,2.23l0.02,0.05c0.18,0.43,0.45,0.79,0.77,1.08c-0.95,0.26-1.94,0.28-2.91,0.06l-6.12-1.4   c-0.75-0.17-1.52-0.04-2.16,0.38c-0.65,0.41-1.09,1.06-1.24,1.81c-0.31,1.49,0.6,2.95,2.08,3.32l7.3,1.86   c0.62,0.16,1.25,0.23,1.87,0.23c0.94,0,1.87-0.18,2.76-0.52l9.28-3.64h1.32v0.41c0,0.43,0.35,0.78,0.78,0.78h4.63   c0.43,0,0.78-0.35,0.78-0.78V27.21C47,26.78,46.65,26.43,46.22,26.43z"></path>
<path d="M11.63,26.92H8.56v-9.18h3.06V26.92z M35.14,19.98c0,3.06-2.25,5.6-5.19,6.05c0.16-0.35,0.24-0.74,0.24-1.13   c0-0.47-0.12-0.93-0.34-1.33c0.34-0.05,0.65-0.21,0.9-0.46c0.31-0.31,0.48-0.72,0.48-1.16V20.8c0-0.9-0.73-1.64-1.64-1.64h-1.15   c-0.04,0-0.07-0.03-0.07-0.07V18c0-0.04,0.03-0.07,0.07-0.07h0.57h0h0h0.57c0.04,0,0.07,0.03,0.07,0.07c0,0.43,0.35,0.78,0.78,0.78   c0.43,0,0.78-0.35,0.78-0.78c0-0.83-0.62-1.52-1.43-1.62v-0.27c0-0.43-0.35-0.78-0.78-0.78s-0.78,0.35-0.78,0.78v0.27   c-0.8,0.1-1.43,0.79-1.43,1.62v1.09c0,0.9,0.73,1.64,1.64,1.64h1.15c0.04,0,0.07,0.03,0.07,0.07v1.16c0,0.02-0.01,0.04-0.02,0.05   c-0.01,0.01-0.03,0.02-0.05,0.02h-1.15c-0.04,0-0.07-0.03-0.07-0.07v-0.11c0-0.43-0.35-0.78-0.78-0.78s-0.78,0.35-0.78,0.78v0.11   c0,0.06,0,0.13,0.01,0.19h-3.53c-0.26-0.69-0.39-1.42-0.39-2.17c0-1.14,0.33-2.29,0.94-3.26c0.18-0.28,0.37-0.54,0.59-0.79   c1.16-1.32,2.84-2.08,4.59-2.08C32.39,13.85,35.14,16.6,35.14,19.98z M20.85,21.35c0-0.21,0.08-0.41,0.23-0.56   c0.08-0.08,0.17-0.14,0.27-0.18c0.04,0.52,0.14,1.03,0.28,1.53C21.2,22.14,20.85,21.79,20.85,21.35z M14.61,26.1h-1.42v-7.3h0.22   c0.58,0,1.15-0.14,1.67-0.4c0.02-0.01,0.05-0.03,0.07-0.04l5.06-3.3c0.7-0.34,1.55-0.26,2.17,0.2l0.37,0.27   c-0.02,0.03-0.04,0.06-0.07,0.09c-0.1,0.14-0.19,0.28-0.28,0.43c-0.54,0.9-0.89,1.92-1.01,2.95c-0.53,0.06-1.03,0.29-1.41,0.68   c-0.44,0.44-0.69,1.04-0.69,1.67c0,1.3,1.06,2.36,2.36,2.36h5.78c0.32,0,0.62,0.12,0.85,0.35c0.23,0.23,0.35,0.53,0.35,0.85   c0,0.48-0.28,0.91-0.71,1.1c-0.05,0.02-0.1,0.04-0.14,0.05c0,0-0.01,0-0.01,0c-0.11,0.03-0.22,0.05-0.33,0.05h-6.57   c-0.43,0-0.78,0.35-0.78,0.78s0.35,0.78,0.78,0.78h6.57c0.2,0,0.4-0.02,0.59-0.06c0.33,0.04,0.66,0.07,0.99,0.07   c4.24,0,7.69-3.45,7.69-7.69c0-4.24-3.45-7.69-7.69-7.69c-1.95,0-3.82,0.74-5.24,2.06l-0.46-0.35c-1.11-0.83-2.62-0.96-3.86-0.32   c-0.02,0.01-0.05,0.03-0.07,0.04l-5.06,3.3c-0.29,0.14-0.6,0.21-0.92,0.21h-0.22v-0.28c0-0.43-0.35-0.78-0.78-0.78H7.78   C7.35,16.17,7,16.52,7,16.96V27.7c0,0.43,0.35,0.78,0.78,0.78h4.63c0.43,0,0.78-0.35,0.78-0.78v-0.04h1.42   c0.43,0,0.78-0.35,0.78-0.78S15.04,26.1,14.61,26.1z"></path>
<path d="M18.36,26.45c-0.18-0.28-0.54-0.41-0.86-0.32c-0.31,0.09-0.54,0.37-0.56,0.69c-0.03,0.32,0.16,0.64,0.46,0.77   c0.29,0.13,0.65,0.07,0.87-0.16C18.52,27.18,18.56,26.75,18.36,26.45z"></path>
</g>
</svg>