<svg xmlns="http://www.w3.org/2000/svg" xmlns:xlink="http://www.w3.org/1999/xlink" id="Layer_1" x="0px" y="0px" viewBox="0 0 54 54" style="enable-background:new 0 0 54 54;" xml:space="preserve">
<style type="text/css">
	.st0{clip-path:url(#SVGID_2_);}
	.st1{clip-path:url(#SVGID_2_);fill:#6D6F72;}
	.st2{clip-path:url(#SVGID_2_);fill:#D8D8D8;}
	.st3{clip-path:url(#SVGID_2_);fill:#3396CF;}
	.st4{opacity:0.2;clip-path:url(#SVGID_2_);}
	.st5{clip-path:url(#SVGID_2_);fill:#FFB123;}
	.st6{fill:#3396CF;}
	.st7{opacity:0.2;}
	.st8{fill:#DBDBDB;}
	.st9{fill:#6D6F72;}
	.st10{fill:#F0AB12;}
	.st11{clip-path:url(#SVGID_2_);fill:#DBDBDB;}
	.st12{clip-path:url(#SVGID_2_);fill:#F0AB12;}
	.st13{opacity:0.2;clip-path:url(#SVGID_2_);enable-background:new    ;}
	.st14{clip-path:url(#SVGID_4_);}
	.st15{clip-path:url(#SVGID_2_);fill:#505050;}
	.st16{clip-path:url(#SVGID_2_);fill:#2C92BF;}
	.st17{clip-path:url(#SVGID_2_);fill:#FFFFFF;}
	.st18{clip-path:url(#SVGID_2_);fill:#142636;}
	.st19{clip-path:url(#SVGID_2_);fill:#C41F61;}
	.st20{clip-path:url(#SVGID_2_);fill:#F4F4F4;}
	.st21{clip-path:url(#SVGID_2_);fill:#3DAD87;}
	.st22{clip-path:url(#SVGID_6_);}
	.st23{clip-path:url(#SVGID_8_);fill:none;stroke:#142636;stroke-width:3.126;stroke-linejoin:round;}
	.st24{clip-path:url(#SVGID_10_);fill:#13805B;}
	.st25{clip-path:url(#SVGID_10_);fill:#3DAD87;}
	.st26{clip-path:url(#SVGID_10_);fill:#142636;}
	.st27{clip-path:url(#SVGID_10_);fill:#030504;}
	.st28{clip-path:url(#SVGID_10_);fill:#FFFFFF;}
	.st29{clip-path:url(#SVGID_10_);fill:#DBDBDB;}
	.st30{clip-path:url(#SVGID_10_);fill:#F5F5F5;}
	.st31{clip-path:url(#SVGID_10_);}
	.st32{clip-path:url(#SVGID_10_);fill:#6D6F72;}
	.st33{clip-path:url(#SVGID_10_);fill:#3396CF;}
	.st34{clip-path:url(#SVGID_10_);fill:none;stroke:#DBDBDB;}
	.st35{clip-path:url(#SVGID_10_);fill:#C41F61;}
	.st36{clip-path:url(#SVGID_10_);fill:#CFCFCF;}
	.st37{clip-path:url(#SVGID_10_);fill:none;stroke:#030504;stroke-width:1.5;}
	.st38{clip-path:url(#SVGID_10_);fill:#00A1ED;}
	.st39{clip-path:url(#SVGID_10_);fill:#D3D3D2;}
	.st40{opacity:0.2;clip-path:url(#SVGID_10_);fill:#080909;}
	.st41{clip-path:url(#SVGID_10_);fill:#F0AB12;}
	.st42{clip-path:url(#SVGID_10_);fill:#5A5C5F;}
	.st43{clip-path:url(#SVGID_10_);fill:#C5C5C5;}
	.st44{clip-path:url(#SVGID_10_);fill:none;stroke:#030504;stroke-width:1.215;}
	.st45{clip-path:url(#SVGID_10_);fill:#393939;}
	.st46{fill:#142636;}
	.st47{clip-path:url(#SVGID_12_);enable-background:new    ;}
	.st48{clip-path:url(#SVGID_14_);fill:#848080;}
	.st49{clip-path:url(#SVGID_14_);fill:#E2E2E2;}
	.st50{clip-path:url(#SVGID_14_);fill:#3396CF;}
	.st51{clip-path:url(#SVGID_14_);fill:#142636;}
	.st52{clip-path:url(#SVGID_16_);enable-background:new    ;}
	.st53{clip-path:url(#SVGID_18_);fill:#F0AB12;}
	.st54{clip-path:url(#SVGID_18_);fill:#FFFFFF;}
	.st55{clip-path:url(#SVGID_18_);fill:#142636;}
	.st56{clip-path:url(#SVGID_20_);enable-background:new    ;}
	.st57{clip-path:url(#SVGID_22_);fill:#3396CF;}
	.st58{clip-path:url(#SVGID_22_);fill:#E2E2E2;}
	.st59{clip-path:url(#SVGID_22_);fill:#F0AB12;}
	.st60{clip-path:url(#SVGID_22_);fill:#FFF5F5;}
	.st61{clip-path:url(#SVGID_22_);fill:#142636;}
	.st62{clip-path:url(#SVGID_24_);enable-background:new    ;}
	.st63{clip-path:url(#SVGID_26_);fill:#3396CF;}
	.st64{clip-path:url(#SVGID_26_);fill:#E2E2E2;}
	.st65{clip-path:url(#SVGID_26_);fill:#F0AB12;}
	.st66{clip-path:url(#SVGID_26_);fill:#142636;}
	.st67{clip-path:url(#SVGID_28_);}
	.st68{fill:#3794CF;}
	.st69{fill:#F0AD11;}
	.st70{fill:#FFCD2C;}
	.st71{fill:#F6F6F6;}
	.st72{fill:#3A92CF;}
	.st73{fill:#237BB7;}
	.st74{fill:#999999;}
	.st75{fill:#2779B7;}
	.st76{fill:#142536;}
	.st77{clip-path:url(#SVGID_28_);fill:#6D6F72;}
	.st78{clip-path:url(#SVGID_30_);enable-background:new    ;}
	.st79{clip-path:url(#SVGID_32_);fill:#142636;}
	.st80{clip-path:url(#SVGID_32_);fill:#E2E2E2;}
	.st81{clip-path:url(#SVGID_32_);fill:#3396CF;}
	.st82{opacity:0.2;clip-path:url(#SVGID_32_);fill:#FFFFFF;}
	.st83{opacity:0.102;clip-path:url(#SVGID_32_);}
	.st84{clip-path:url(#SVGID_32_);fill:#F0AB12;}
	.st85{clip-path:url(#SVGID_34_);fill:#E2E2E2;}
	.st86{clip-path:url(#SVGID_34_);fill:#42A5F5;}
	.st87{clip-path:url(#SVGID_34_);fill:#3396CF;}
	.st88{clip-path:url(#SVGID_34_);fill:#142636;}
	.st89{clip-path:url(#SVGID_34_);fill:#F0AB12;}
	.st90{clip-path:url(#SVGID_34_);fill:none;stroke:#142636;stroke-width:3;}
	.st91{clip-path:url(#SVGID_34_);fill:#FFFFFF;}
	.st92{clip-path:url(#SVGID_34_);fill:none;stroke:#FFFFFF;stroke-width:3;}
	.st93{clip-path:url(#SVGID_34_);fill:#3DAD87;}
	.st94{clip-path:url(#SVGID_34_);fill:none;stroke:#FFFFFF;stroke-width:2;stroke-linecap:round;stroke-linejoin:round;}
	.st95{clip-path:url(#SVGID_34_);fill:#C41F61;}
	.st96{clip-path:url(#SVGID_34_);fill:none;stroke:#142636;stroke-width:2.5;}
	.st97{clip-path:url(#SVGID_34_);fill:#B1DBFC;}
	.st98{clip-path:url(#SVGID_34_);fill:#FFD301;}
	.st99{clip-path:url(#SVGID_34_);fill:none;stroke:#142636;stroke-width:0.2;}
	.st100{clip-path:url(#SVGID_34_);fill:#15324B;}
	.st101{clip-path:url(#SVGID_34_);fill:#F6F6F6;}
	.st102{clip-path:url(#SVGID_34_);fill:#5C5C5C;}
	.st103{clip-path:url(#SVGID_34_);fill:#F0AD11;}
	.st104{clip-path:url(#SVGID_34_);fill:#FFD4BE;}
	.st105{clip-path:url(#SVGID_34_);fill:#DBDBDB;}
	.st106{clip-path:url(#SVGID_34_);fill:#6D6F72;}
	.st107{clip-path:url(#SVGID_34_);fill:#2877A4;}
	.st108{clip-path:url(#SVGID_34_);fill-rule:evenodd;clip-rule:evenodd;fill:#EDEDED;}
	.st109{clip-path:url(#SVGID_34_);fill-rule:evenodd;clip-rule:evenodd;fill:#E2E2E2;}
	.st110{clip-path:url(#SVGID_34_);fill:none;stroke:#E2E2E2;}
	.st111{clip-path:url(#SVGID_34_);fill:#F0F0F0;}
	.st112{clip-path:url(#SVGID_34_);fill:none;stroke:#0D1C29;stroke-width:4;stroke-miterlimit:10;}
	.st113{clip-path:url(#SVGID_34_);fill:#0B151E;}
	.st114{clip-path:url(#SVGID_34_);fill:#E07814;}
	.st115{clip-path:url(#SVGID_34_);fill:#F09909;}
	.st116{clip-path:url(#SVGID_34_);fill:none;stroke:#142636;stroke-width:4;stroke-linejoin:round;}
	.st117{clip-path:url(#SVGID_34_);fill:#0F85C6;}
	.st118{clip-path:url(#SVGID_34_);fill:#434344;}
	.st119{clip-path:url(#SVGID_34_);fill:#0D6F9F;}
	.st120{clip-path:url(#SVGID_34_);fill:#5B5C5F;}
	.st121{clip-path:url(#SVGID_34_);fill:#0D1C29;}
	.st122{clip-path:url(#SVGID_34_);fill:#D4D4D2;}
	.st123{clip-path:url(#SVGID_34_);fill:none;stroke:#FFFFFF;stroke-width:4;stroke-miterlimit:10;}
	.st124{clip-path:url(#SVGID_34_);fill:#F1F1F2;}
	.st125{clip-path:url(#SVGID_34_);fill:none;stroke:#FFFFFF;stroke-width:3;stroke-linecap:round;}
	.st126{clip-path:url(#SVGID_34_);fill:#E7ECF1;}
	.st127{clip-path:url(#SVGID_34_);fill:#DAE4EA;}
	.st128{clip-path:url(#SVGID_34_);fill:#F4F8F8;}
	.st129{clip-path:url(#SVGID_34_);fill:#78B9EB;}
	.st130{clip-path:url(#SVGID_34_);fill:#808285;}
	.st131{clip-path:url(#SVGID_34_);}
	.st132{clip-path:url(#SVGID_34_);fill:none;stroke:#DBDBDB;}
	.st133{opacity:0.1;fill:#808285;}
	.st134{fill:#D8D8D8;}
	.st135{fill:#FFB123;}
	.st136{fill:#CFCFCF;}
	.st137{fill:none;stroke:#030504;stroke-width:1.5;}
	.st138{fill:#00A1ED;}
	.st139{fill:#030504;}
	.st140{fill:#D3D3D2;}
	.st141{opacity:0.2;fill:#080909;}
	.st142{fill:#5A5C5F;}
	.st143{fill:#C5C5C5;}
	.st144{fill:none;stroke:#030504;stroke-width:1.215;}
	.st145{fill:#393939;}
	.st146{fill:#FFD4BE;}
	.st147{fill:#E7ECF1;}
	.st148{fill:#DAE4EA;}
	.st149{fill:#F4F8F8;}
	.st150{fill:#FFFFFF;}
	.st151{fill:#505050;}
	.st152{fill:#2C92BF;}
	.st153{fill:#C41F61;}
	.st154{fill:#3DAD87;}
	.st155{fill:#E2E2E2;}
	.st156{clip-path:url(#SVGID_36_);enable-background:new    ;}
	.st157{clip-path:url(#SVGID_38_);fill:#3396CF;}
	.st158{clip-path:url(#SVGID_38_);fill:#E2E2E2;}
	.st159{clip-path:url(#SVGID_38_);fill:#F0AB12;}
	.st160{clip-path:url(#SVGID_38_);fill:#142636;}
	.st161{clip-path:url(#SVGID_40_);enable-background:new    ;}
	.st162{clip-path:url(#SVGID_42_);fill:#DBDBDB;}
	.st163{clip-path:url(#SVGID_42_);fill:#6D6F72;}
	.st164{clip-path:url(#SVGID_42_);fill:#3396CF;}
	.st165{clip-path:url(#SVGID_42_);fill:#FFB123;}
	.st166{clip-path:url(#SVGID_42_);fill:#2877A4;}
	.st167{clip-path:url(#SVGID_42_);}
</style>
<g>
<path class="st155" d="M36.79,42.64h2.54c1.12,0,2.04-0.91,2.04-2.04V20.89c0-1.12-0.91-2.04-2.04-2.04h-3.24h1.51H14.66   c-1.12,0-2.04,0.91-2.04,2.04c0,1.12,0.91,2.04,2.04,2.04h21.43L36.79,42.64z"></path>
<path class="st6" d="M37.94,24.69v15.92c0,1.12-0.91,2.04-2.04,2.04H14.66c-1.12,0-2.04-0.91-2.04-2.04V22.93h23.55   C37.15,22.93,37.94,23.72,37.94,24.69z"></path>
<path class="st6" d="M41.37,28.15c0,1.18-0.96,2.14-2.14,2.14h-7.65c-1.83,0-3.31,1.48-3.31,3.31c0,1.83,1.48,3.31,3.31,3.31h7.38   c1.33,0,2.42-1.08,2.42-2.42V28.15z"></path>
<path class="st10" d="M30.37,15.5c0.15,0,0.31,0.02,0.46,0.05c0.15,0.03,0.3,0.07,0.44,0.13c0.14,0.06,0.28,0.13,0.41,0.22   c0.13,0.09,0.25,0.18,0.36,0.29c0.11,0.11,0.21,0.23,0.29,0.36c0.09,0.13,0.16,0.26,0.22,0.41c0.06,0.14,0.1,0.29,0.13,0.44   c0.03,0.15,0.05,0.3,0.05,0.46c0,0.15-0.02,0.31-0.05,0.46c-0.03,0.15-0.07,0.3-0.13,0.44c-0.06,0.14-0.13,0.28-0.22,0.41   c-0.09,0.13-0.18,0.25-0.29,0.36c-0.11,0.11-0.23,0.21-0.36,0.29c-0.13,0.09-0.26,0.16-0.41,0.22c-0.14,0.06-0.29,0.1-0.44,0.13   c-0.15,0.03-0.3,0.05-0.46,0.05c-0.15,0-0.31-0.02-0.46-0.05c-0.15-0.03-0.3-0.07-0.44-0.13c-0.14-0.06-0.28-0.13-0.41-0.22   c-0.13-0.09-0.25-0.18-0.36-0.29c-0.11-0.11-0.21-0.23-0.29-0.36c-0.09-0.13-0.16-0.26-0.22-0.41c-0.06-0.14-0.1-0.29-0.13-0.44   c-0.03-0.15-0.05-0.3-0.05-0.46c0-0.15,0.02-0.31,0.05-0.46c0.03-0.15,0.07-0.3,0.13-0.44c0.06-0.14,0.13-0.28,0.22-0.41   c0.09-0.13,0.18-0.25,0.29-0.36c0.11-0.11,0.23-0.21,0.36-0.29c0.13-0.09,0.26-0.16,0.41-0.22c0.14-0.06,0.29-0.1,0.44-0.13   C30.06,15.51,30.22,15.5,30.37,15.5z"></path>
<path class="st10" d="M24.2,11.36c0.15,0,0.31,0.02,0.46,0.05c0.15,0.03,0.3,0.07,0.44,0.13c0.14,0.06,0.28,0.13,0.41,0.22   c0.13,0.09,0.25,0.18,0.36,0.29s0.21,0.23,0.29,0.36c0.09,0.13,0.16,0.26,0.22,0.41c0.06,0.14,0.1,0.29,0.13,0.44   c0.03,0.15,0.05,0.3,0.05,0.46c0,0.15-0.02,0.31-0.05,0.46c-0.03,0.15-0.07,0.3-0.13,0.44c-0.06,0.14-0.13,0.28-0.22,0.41   c-0.09,0.13-0.18,0.25-0.29,0.36s-0.23,0.21-0.36,0.29c-0.13,0.09-0.26,0.16-0.41,0.22c-0.14,0.06-0.29,0.1-0.44,0.13   c-0.15,0.03-0.3,0.05-0.46,0.05c-0.15,0-0.31-0.02-0.46-0.05c-0.15-0.03-0.3-0.07-0.44-0.13c-0.14-0.06-0.28-0.13-0.41-0.22   c-0.13-0.09-0.25-0.18-0.36-0.29c-0.11-0.11-0.21-0.23-0.29-0.36c-0.09-0.13-0.16-0.26-0.22-0.41c-0.06-0.14-0.1-0.29-0.13-0.44   c-0.03-0.15-0.05-0.3-0.05-0.46c0-0.15,0.02-0.31,0.05-0.46s0.07-0.3,0.13-0.44s0.13-0.28,0.22-0.41c0.09-0.13,0.18-0.25,0.29-0.36   c0.11-0.11,0.23-0.21,0.36-0.29c0.13-0.09,0.26-0.16,0.41-0.22c0.14-0.06,0.29-0.1,0.44-0.13C23.89,11.37,24.05,11.36,24.2,11.36z"></path>
<path class="st46" d="M39.34,42.01h-1.16c0.25-0.41,0.4-0.89,0.4-1.4v-3.06h0.38c0.66,0,1.28-0.21,1.78-0.58v3.64   C40.74,41.38,40.11,42.01,39.34,42.01z M13.26,40.61V23.17c0.41,0.25,0.89,0.4,1.4,0.4H35.9c0.77,0,1.4,0.63,1.4,1.4v4.69h-5.72   c-2.17,0-3.94,1.77-3.94,3.94s1.77,3.94,3.94,3.94h5.72v3.06c0,0.76-0.61,1.38-1.37,1.4H35.9c0,0-0.01,0-0.01,0H14.66   C13.89,42.01,13.26,41.38,13.26,40.61z M40.74,30.49v4.01c0,0.98-0.8,1.78-1.78,1.78h-7.38c-1.47,0-2.67-1.2-2.67-2.67   c0-1.47,1.2-2.67,2.67-2.67h7.65C39.78,30.93,40.3,30.77,40.74,30.49z M39.34,18.22h-3.72c-0.35,0-0.64,0.28-0.64,0.64   c0,0.35,0.28,0.64,0.64,0.64h3.72c0.77,0,1.4,0.63,1.4,1.4v7.26c0,0.83-0.68,1.51-1.51,1.51h-0.65v-4.69c0-1.47-1.2-2.67-2.67-2.67   h-9.38v-1.94c0-0.35-0.28-0.64-0.64-0.64c-0.35,0-0.64,0.28-0.64,0.64v1.94H14.66c-0.77,0-1.4-0.63-1.4-1.4s0.63-1.4,1.4-1.4h4.21   c0.35,0,0.64-0.28,0.64-0.64c0-0.35-0.28-0.64-0.64-0.64h-4.21c-1.47,0-2.67,1.2-2.67,2.67c0,0.04,0,0.07,0,0.11   c0,0.02,0,0.04,0,0.05v19.56c0,1.47,1.2,2.67,2.67,2.67l24.68,0c1.47,0,2.67-1.2,2.67-2.67V20.89   C42.01,19.42,40.81,18.22,39.34,18.22z"></path>
<path class="st46" d="M30.37,16.14c0.95,0,1.72,0.77,1.72,1.72c0,0.95-0.77,1.72-1.72,1.72c-0.95,0-1.72-0.77-1.72-1.72   C28.65,16.91,29.42,16.14,30.37,16.14z M30.37,20.84c1.65,0,2.99-1.34,2.99-2.99s-1.34-2.99-2.99-2.99c-1.65,0-2.99,1.34-2.99,2.99   S28.72,20.84,30.37,20.84z"></path>
<path class="st46" d="M24.2,11.99c0.95,0,1.72,0.77,1.72,1.72c0,0.95-0.77,1.72-1.72,1.72c-0.95,0-1.72-0.77-1.72-1.72   C22.49,12.76,23.26,11.99,24.2,11.99z M24.2,16.7c1.65,0,2.99-1.34,2.99-2.99c0-1.65-1.34-2.99-2.99-2.99   c-1.65,0-2.99,1.34-2.99,2.99C21.21,15.35,22.55,16.7,24.2,16.7z"></path>
<path class="st46" d="M33.06,13.05h0.36v0.36c0,0.35,0.28,0.64,0.64,0.64c0.35,0,0.64-0.28,0.64-0.64v-0.36h0.36   c0.35,0,0.64-0.28,0.64-0.64c0-0.35-0.28-0.64-0.64-0.64H34.7v-0.36c0-0.35-0.28-0.64-0.64-0.64c-0.35,0-0.64,0.28-0.64,0.64v0.36   h-0.36c-0.35,0-0.64,0.28-0.64,0.64C32.43,12.77,32.71,13.05,33.06,13.05z"></path>
<path class="st46" d="M21.51,17.57v2.58c0,0.35,0.28,0.64,0.64,0.64s0.64-0.28,0.64-0.64v-2.58c0-0.35-0.28-0.64-0.64-0.64   S21.51,17.22,21.51,17.57z"></path>
<path class="st46" d="M31.33,33.68c0,0.17,0.07,0.33,0.19,0.45c0.12,0.12,0.28,0.19,0.45,0.19c0.17,0,0.33-0.07,0.45-0.19   c0.12-0.12,0.19-0.28,0.19-0.45s-0.07-0.33-0.19-0.45c-0.12-0.12-0.28-0.19-0.45-0.19c-0.17,0-0.33,0.07-0.45,0.19   C31.4,33.35,31.33,33.51,31.33,33.68z"></path>
<path class="st46" d="M16.21,27.25c-0.35,0-0.64,0.28-0.64,0.64v5.24c0,0.35,0.28,0.64,0.64,0.64c0.35,0,0.64-0.28,0.64-0.64v-5.24   C16.85,27.54,16.56,27.25,16.21,27.25z"></path>
<path class="st46" d="M16.21,34.69c-0.17,0-0.33,0.07-0.45,0.19c-0.12,0.12-0.19,0.28-0.19,0.45s0.07,0.33,0.19,0.45   c0.12,0.12,0.28,0.19,0.45,0.19c0.17,0,0.33-0.07,0.45-0.19c0.12-0.12,0.19-0.28,0.19-0.45s-0.07-0.33-0.19-0.45   C16.54,34.75,16.38,34.69,16.21,34.69z"></path>
</g>
</svg>